<?xml version="1.0" encoding="UTF-8" standalone="no"?><svg xmlns="https://www.w3.org/2000/svg" xmlns:xlink= "https://www.w3.org/1999/xlink" width="600" height="390" aria-label="A chart." style="overflow: hidden;"><defs id="_ABSTRACT_RENDERER_ID_21"></defs><rect x="0" y="0" width="600" height="390" stroke="none" stroke-width="0" fill="#ffffff"></rect><g><text text-anchor="start" x="115" y="52.05" font-family="Arial" font-size="13" font-weight="bold" stroke="none" stroke-width="0" fill="#000000">2024 博客收录</text><rect x="115" y="41" width="371" height="13" stroke="none" stroke-width="0" fill-opacity="0" fill="#ffffff"></rect></g><g><path d="M287.564262867603,279.3963721497513L287.564262867603,303.3963721497513A120,96,0,0,1,181,208L181,184A120,96,0,0,0,287.564262867603,279.3963721497513" stroke="#a52b0e" stroke-width="1" fill="#a52b0e"></path><path d="M301,184L301,208L287.564262867603,303.3963721497513L287.564262867603,279.3963721497513" stroke="#a52b0e" stroke-width="1" fill="#a52b0e"></path><path d="M301,184L287.564262867603,279.3963721497513A120,96,0,0,1,301,88L301,184A0,0,0,0,0,301,184" stroke="#dc3912" stroke-width="1" fill="#dc3912"></path><text text-anchor="start" x="194.8834131024041" y="184.40649033335214" font-family="Arial" font-size="13" stroke="none" stroke-width="0" fill="#ffffff">189</text></g><g><path d="M421,184L421,208A120,96,0,0,1,287.564262867603,303.3963721497513L287.564262867603,279.3963721497513A120,96,0,0,0,421,184" stroke="#264d99" stroke-width="1" fill="#264d99"></path><path d="M301,184L301,88A120,96,0,1,1,287.564262867603,279.3963721497513L301,184A0,0,0,1,0,301,184" stroke="#3366cc" stroke-width="1" fill="#3366cc"></path><text text-anchor="start" x="385.1165868975959" y="192.6935096666479" font-family="Arial" font-size="13" stroke="none" stroke-width="0" fill="#ffffff">203</text></g><g><g><g><text text-anchor="end" x="486" y="182.03269468479607" font-family="Arial" font-size="13" stroke="none" stroke-width="0" fill="#222222">自行提交</text></g><g><text text-anchor="end" x="486" y="203.06730531520395" font-family="Arial" font-size="13" stroke="none" stroke-width="0" fill="#9e9e9e">51.8%</text></g></g><g><path d="M391.5,188.5L434,188.5L434,188.5L486.5,188.5" stroke="#636363" stroke-width="1" stroke-opacity="0.7" fill-opacity="1" fill="none"></path><circle cx="391.5" cy="188.5" r="2" stroke="none" stroke-width="0" fill-opacity="0.7" fill="#636363"></circle></g><g><g><text text-anchor="start" x="115" y="174.03269468479607" font-family="Arial" font-size="13" stroke="none" stroke-width="0" fill="#222222">后台收录</text></g><g><text text-anchor="start" x="115" y="195.06730531520395" font-family="Arial" font-size="13" stroke="none" stroke-width="0" fill="#9e9e9e">48.2%</text></g></g><g><path d="M211.5,180.5L168,180.5L168,180.5L115.5,180.5" stroke="#636363" stroke-width="1" stroke-opacity="0.7" fill-opacity="1" fill="none"></path><circle cx="211.5" cy="180.5" r="2" stroke="none" stroke-width="0" fill-opacity="0.7" fill="#636363"></circle></g></g><g></g></svg>