<svg data-v-0dd9719b="" version="1.0" xmlns="http://www.w3.org/2000/svg" xmlns:xlink="http://www.w3.org/1999/xlink" width="30" height="30" viewBox="84 86 60 60" preserveAspectRatio="xMidYMid meet" color-interpolation-filters="sRGB" style="margin: auto;"> <g data-v-0dd9719b="" fill="url(#linearGradientBg)" class="singlesvg" transform="translate(88.10000610351562,91.01375198364258)"><g class="tp-name" transform="translate(0,0)"><g mask="url(#25c7fe37-9c80-4465-a033-7c757d3800a0)"><rect data-gra="graph-name" x="0" y="0" height="52.6" width="52.6"></rect> <g data-gra="path-name" fill="#c822b0" transform="translate(3.2750003814697273,3)"><g transform="scale(1)"><path d="M17.35-12.35L23.70-12.35L23.70-14.70L28.40-14.70L28.40-12.35L34.50-12.35L34.50-14.70L39.40-14.70L39.40-12.35L45.75-12.35L45.75-31.40L34.65-31.40L34.65-33.15L47.30-33.15L47.30-38.05L42.80-38.05L42.40-40L36.60-40L36.95-38.05L34.65-38.05L34.65-40.25L28.25-40.25L28.25-38.25L16.05-38.25L16.05-33.15L28.25-33.15L28.25-31.40L17.35-31.40ZM1.75-23.35L5.45-23.35L5.45 5L11.60 5L11.60-23.35L15.35-23.35L15.35-29L11.60-29L11.60-40L5.45-40L5.45-29L1.75-29ZM14.20-4.95L36.65-4.95L36.65-1L32.80-1L32.80 5L43.10 5L43.10-4.95L47.80-4.95L47.80-10.15L43.10-10.15L43.10-11.60L36.65-11.60L36.65-10.15L14.20-10.15ZM20.25-3.70L23.65 4.40L30.60 4.40L27.25-3.70ZM23.70-18.50L23.70-20.65L28.40-20.65L28.40-18.50ZM23.70-24.45L23.70-26.70L28.40-26.70L28.40-24.45ZM34.50-18.50L34.50-20.65L39.40-20.65L39.40-18.50ZM34.50-24.45L34.50-26.70L39.40-26.70L39.40-24.45Z" transform="translate(-1.75, 41)"></path></g></g></g></g></g><mask id="25c7fe37-9c80-4465-a033-7c757d3800a0"><rect data-gra="graph-name" x="0" y="0" height="52.6" width="52.6" fill="white"></rect> <g data-gra="path-name" transform="translate(3.2750003814697273,3)" fill="black"><g transform="scale(1)"><path d="M17.35-12.35L23.70-12.35L23.70-14.70L28.40-14.70L28.40-12.35L34.50-12.35L34.50-14.70L39.40-14.70L39.40-12.35L45.75-12.35L45.75-31.40L34.65-31.40L34.65-33.15L47.30-33.15L47.30-38.05L42.80-38.05L42.40-40L36.60-40L36.95-38.05L34.65-38.05L34.65-40.25L28.25-40.25L28.25-38.25L16.05-38.25L16.05-33.15L28.25-33.15L28.25-31.40L17.35-31.40ZM1.75-23.35L5.45-23.35L5.45 5L11.60 5L11.60-23.35L15.35-23.35L15.35-29L11.60-29L11.60-40L5.45-40L5.45-29L1.75-29ZM14.20-4.95L36.65-4.95L36.65-1L32.80-1L32.80 5L43.10 5L43.10-4.95L47.80-4.95L47.80-10.15L43.10-10.15L43.10-11.60L36.65-11.60L36.65-10.15L14.20-10.15ZM20.25-3.70L23.65 4.40L30.60 4.40L27.25-3.70ZM23.70-18.50L23.70-20.65L28.40-20.65L28.40-18.50ZM23.70-24.45L23.70-26.70L28.40-26.70L28.40-24.45ZM34.50-18.50L34.50-20.65L39.40-20.65L39.40-18.50ZM34.50-24.45L34.50-26.70L39.40-26.70L39.40-24.45Z" transform="translate(-1.75, 41)"></path></g></g></mask><defs v-gra="od"><linearGradient id="linearGradientBg" x1="0%" y1="0%" x2="100%" y2="100%"><stop offset="0%" style="stop-color:rgba(205, 28, 28, 1);stop-opacity:1"></stop><stop offset="100%" style="stop-color:rgba(175, 21, 178, 1);stop-opacity:1"></stop></linearGradient></defs></svg>