<svg data-v-0dd9719b="" version="1.0" xmlns="http://www.w3.org/2000/svg" xmlns:xlink="http://www.w3.org/1999/xlink" width="100" height="30" viewBox="70 78 180 70" preserveAspectRatio="xMidYMid meet" color-interpolation-filters="sRGB" style="margin: auto;">
   <g data-v-0dd9719b="" fill="url(#linearGradientBg)" class="icon-text-wrapper icon-svg-group iconsvg" transform="translate(54.55500030517578,94.87861061096191)">
      <g class="iconsvg-imagesvg" transform="translate(0,-8)">
         <g>
            <rect fill="url(#linearGradientBg)" fill-opacity="0" stroke-width="2" x="0" y="0" width="60" height="60" class="image-rect"></rect> 
            <svg x="0" y="0" width="60" height="60" filtersec="colorsb8649217430" class="image-svg-svg primary" style="overflow: visible;">
               <svg xmlns="http://www.w3.org/2000/svg" viewBox="0 -10 608.0999755859375 620.5999755859375">
                  <path d="M136.5 183.6H149c1.7 0 3-1.4 3-3v-12.5c0-1.7-1.4-3-3-3h-12.5c-1.7 0-3 1.4-3 3v12.5c-.1 1.7 1.3 3 3 3zM112.9 280.3v14.8c0 2 1.6 3.6 3.6 3.6h14.8c2 0 3.6-1.6 3.6-3.6v-14.8c0-2-1.6-3.6-3.6-3.6h-14.8c-2 0-3.6 1.6-3.6 3.6zM36.1 305.8v-24.3c0-3.2-2.6-5.9-5.9-5.9H5.9c-3.2 0-5.9 2.6-5.9 5.9v24.3c0 3.2 2.6 5.9 5.9 5.9h24.3c3.2 0 5.9-2.7 5.9-5.9zM42.6 260.9h58.5c7.8 0 14.2-6.4 14.2-14.2v-58.5c0-7.8-6.4-14.2-14.2-14.2H42.6c-7.8 0-14.2 6.4-14.2 14.2v58.5c0 7.8 6.4 14.2 14.2 14.2zM154.2 148.9h65.5c8.7 0 15.9-7.1 15.9-15.9V67.6c0-8.7-7.1-15.9-15.9-15.9h-65.5c-8.7 0-15.9 7.1-15.9 15.9v65.5c.1 8.7 7.2 15.8 15.9 15.8z" fill="rgba(96, 28, 205, 1)"></path>
                  <linearGradient id="a23ca9a45-1be7-40b5-9436-d6ce29d47b8b" gradientUnits="userSpaceOnUse" x1="20.209" y1="314.098" x2="582.468" y2="314.098">
                     <stop offset="0" stop-color="rgba(126, 9, 184, 1)"></stop>
                     <stop offset="1" stop-color="rgba(126, 9, 184, 1)"></stop>
                  </linearGradient>
                  <path d="M179.9 300.5c2.1.7 4.3 1.1 6.6 1.1h83.7c2.3 0 4.6-.4 6.6-1.1l37.4 37.4c-1.3 2.7-2 5.7-2 8.8v83.7c0 11.2 9.1 20.3 20.3 20.3h83.7c11.2 0 20.3-9.1 20.3-20.3v-83.7c0-3.2-.7-6.2-2-8.8l37.4-37.4c2.1.7 4.3 1.1 6.6 1.1h83.7c11.2 0 20.3-9.1 20.3-20.3v-83.7c0-11.2-9.1-20.3-20.3-20.3h-83.7c-11.2 0-20.3 9.1-20.3 20.3v83.7c0 2.8.6 5.5 1.6 7.9l-38.1 38.1c-1.8-.5-3.6-.8-5.6-.8h-83.7c-1.9 0-3.8.3-5.6.8l-38.1-38.1c1-2.4 1.6-5.1 1.6-7.9v-83.7c0-11.2-9.1-20.3-20.3-20.3h-83.7c-11.2 0-20.3 9.1-20.3 20.3v83.7c0 2.8.6 5.5 1.6 7.9l-38.1 38.1c-1.8-.5-3.6-.8-5.6-.8H40.5c-11.2 0-20.3 9.1-20.3 20.3v83.7c0 11.2 9.1 20.3 20.3 20.3h83.7c11.2 0 20.3-9.1 20.3-20.3v-83.7c0-3.2-.7-6.2-2-8.8l37.4-37.5z" fill="url(#a23ca9a45-1be7-40b5-9436-d6ce29d47b8b)"></path>
                  <path d="M189.8 434.5c-1.6 0-2.9 1.3-2.9 2.9v12.1c0 1.6 1.3 2.9 2.9 2.9H202c1.6 0 2.9-1.3 2.9-2.9v-12.1c0-1.6-1.3-2.9-2.9-2.9h-12.2z" fill="url(#linearGradientBg)"></path>
               </svg>
            </svg>
         </g>
      </g>
      <!-- 调整字体大小和位置：博友圈 -->
      <g transform="translate(68, 18)">
         <g data-gra="path-name" class="tp-name iconsvg-namesvg">
            <g transform="scale(1)">
               <g>
                  <text x="0" y="0" fill="url(#linearGradientBg)" font-size="48" font-family="Arial, sans-serif" font-weight="bold" text-anchor="start" dominant-baseline="central">博友圈</text>
               </g>
            </g>
         </g>
      </g>
   </g>
   <defs v-gra="od">
      <linearGradient id="linearGradientBg" x1="0%" y1="0%" x2="100%" y2="100%">
         <stop offset="0%" style="stop-color:rgba(237, 126, 126, 1);stop-opacity:1" />
         <stop offset="100%" style="stop-color:rgba(192, 135, 221, 1);stop-opacity:1" />
      </linearGradient>
   </defs>
</svg>