<svg data-v-0dd9719b="" version="1.0" xmlns="http://www.w3.org/2000/svg" xmlns:xlink="http://www.w3.org/1999/xlink" width="100" height="30" viewBox="70 78 180 70" preserveAspectRatio="xMidYMid meet" color-interpolation-filters="sRGB" style="margin: auto;">
   <g data-v-0dd9719b="" fill="url(#linearGradientBg)" class="icon-text-wrapper icon-svg-group iconsvg" transform="translate(54.55500030517578,94.87861061096191)">
      <g class="iconsvg-imagesvg" transform="translate(0,-8)">
         <g>
            <rect fill="url(#linearGradientBg)" fill-opacity="0" stroke-width="2" x="0" y="0" width="60" height="60" class="image-rect"></rect> 
            <svg x="0" y="0" width="60" height="60" filtersec="colorsb8649217430" class="image-svg-svg primary" style="overflow: visible;">
               <svg xmlns="http://www.w3.org/2000/svg" viewBox="0 -10 608.0999755859375 620.5999755859375">
                  <path d="M136.5 183.6H149c1.7 0 3-1.4 3-3v-12.5c0-1.7-1.4-3-3-3h-12.5c-1.7 0-3 1.4-3 3v12.5c-.1 1.7 1.3 3 3 3zM112.9 280.3v14.8c0 2 1.6 3.6 3.6 3.6h14.8c2 0 3.6-1.6 3.6-3.6v-14.8c0-2-1.6-3.6-3.6-3.6h-14.8c-2 0-3.6 1.6-3.6 3.6zM36.1 305.8v-24.3c0-3.2-2.6-5.9-5.9-5.9H5.9c-3.2 0-5.9 2.6-5.9 5.9v24.3c0 3.2 2.6 5.9 5.9 5.9h24.3c3.2 0 5.9-2.7 5.9-5.9zM42.6 260.9h58.5c7.8 0 14.2-6.4 14.2-14.2v-58.5c0-7.8-6.4-14.2-14.2-14.2H42.6c-7.8 0-14.2 6.4-14.2 14.2v58.5c0 7.8 6.4 14.2 14.2 14.2zM154.2 148.9h65.5c8.7 0 15.9-7.1 15.9-15.9V67.6c0-8.7-7.1-15.9-15.9-15.9h-65.5c-8.7 0-15.9 7.1-15.9 15.9v65.5c.1 8.7 7.2 15.8 15.9 15.8z" fill="rgba(24, 112, 224, 1)"></path>
                  <linearGradient id="a23ca9a45-1be7-40b5-9436-d6ce29d47b8b" gradientUnits="userSpaceOnUse" x1="20.209" y1="314.098" x2="582.468" y2="314.098">
                     <stop offset="0" stop-color="rgb(119, 174, 245)"></stop>
                     <stop offset="1" stop-color="rgb(19, 94, 192)"></stop>
                  </linearGradient>
                  <path d="M179.9 300.5c2.1.7 4.3 1.1 6.6 1.1h83.7c2.3 0 4.6-.4 6.6-1.1l37.4 37.4c-1.3 2.7-2 5.7-2 8.8v83.7c0 11.2 9.1 20.3 20.3 20.3h83.7c11.2 0 20.3-9.1 20.3-20.3v-83.7c0-3.2-.7-6.2-2-8.8l37.4-37.4c2.1.7 4.3 1.1 6.6 1.1h83.7c11.2 0 20.3-9.1 20.3-20.3v-83.7c0-11.2-9.1-20.3-20.3-20.3h-83.7c-11.2 0-20.3 9.1-20.3 20.3v83.7c0 2.8.6 5.5 1.6 7.9l-38.1 38.1c-1.8-.5-3.6-.8-5.6-.8h-83.7c-1.9 0-3.8.3-5.6.8l-38.1-38.1c1-2.4 1.6-5.1 1.6-7.9v-83.7c0-11.2-9.1-20.3-20.3-20.3h-83.7c-11.2 0-20.3 9.1-20.3 20.3v83.7c0 2.8.6 5.5 1.6 7.9l-38.1 38.1c-1.8-.5-3.6-.8-5.6-.8H40.5c-11.2 0-20.3 9.1-20.3 20.3v83.7c0 11.2 9.1 20.3 20.3 20.3h83.7c11.2 0 20.3-9.1 20.3-20.3v-83.7c0-3.2-.7-6.2-2-8.8l37.4-37.5z" fill="url(#a23ca9a45-1be7-40b5-9436-d6ce29d47b8b)"></path>
                  <path d="M189.8 434.5c-1.6 0-2.9 1.3-2.9 2.9v12.1c0 1.6 1.3 2.9 2.9 2.9H202c1.6 0 2.9-1.3 2.9-2.9v-12.1c0-1.6-1.3-2.9-2.9-2.9h-12.2z" fill="url(#linearGradientBg)"></path>
               </svg>
            </svg>
         </g>
      </g>
      <!-- 调整字体大小和位置：博友圈 -->
      <g transform="translate(68, -16)">
         <g data-gra="path-name" class="tp-name iconsvg-namesvg">
            <g transform="scale(1)">
               <g>
                  <path d="M28.85 30.34L22.27 30.34L22.27 32.78L28.85 32.78L28.85 30.34ZM39.74 30.34L33.12 30.34L33.12 32.78L39.74 32.78L39.74 30.34ZM33.12 27.22L39.74 27.22L39.74 24.77L33.12 24.77L33.12 27.22ZM22.27 27.22L28.85 27.22L28.85 24.77L22.27 24.77L22.27 27.22ZM28.85 35.90L22.27 35.90L22.27 40.03L18.10 40.03L18.10 21.31L28.85 21.31L28.85 18.96L16.90 18.96L16.90 15.12L28.85 15.12L28.85 11.52L33.12 11.52L33.12 15.12L37.92 15.12Q37.15 13.39 36.19 11.95L36.19 11.95L40.08 11.33Q41.18 13.92 41.62 15.12L41.62 15.12L45.22 15.12L45.22 18.96L33.12 18.96L33.12 21.31L43.92 21.31L43.92 40.03L40.08 40.03L40.08 41.81L45.46 41.81L45.46 45.65L40.08 45.65L40.08 51.46Q40.08 55.73 35.47 55.73L35.47 55.73L30.77 55.73L29.81 51.50Q31.97 51.79 33.98 51.79L33.98 51.79Q35.71 51.79 35.71 50.40L35.71 50.40L35.71 45.65L23.23 45.65Q26.88 48.24 29.52 50.88L29.52 50.88L26.69 53.76Q24.24 51.02 19.92 47.86L19.92 47.86L22.22 45.65L15.65 45.65L15.65 41.81L35.71 41.81L35.71 39.50L39.74 39.50L39.74 35.90L33.12 35.90L33.12 39.60L28.85 39.60L28.85 35.90ZM2.54 27.36L2.54 22.94L7.20 22.94L7.20 11.62L11.66 11.62L11.66 22.94L16.03 22.94L16.03 27.36L11.66 27.36L11.66 55.78L7.20 55.78L7.20 27.36L2.54 27.36ZM51.41 22.18L51.41 17.76L64.22 17.76Q64.70 13.87 64.90 11.57L64.90 11.57L69.50 11.57Q69.17 14.78 68.78 17.76L68.78 17.76L93.26 17.76L93.26 22.18L68.16 22.18Q67.58 25.49 67.01 28.37L67.01 28.37L88.70 28.37L88.70 32.35Q86.06 39.89 80.16 45.50L80.16 45.50Q85.78 49.44 93.98 51.55L93.98 51.55L91.68 55.73Q82.61 53.14 76.61 48.48L76.61 48.48Q70.37 52.99 61.78 55.92L61.78 55.92L59.42 51.60Q67.49 49.34 73.25 45.50L73.25 45.50Q68.06 40.18 65.90 32.98L65.90 32.98Q65.18 35.57 64.22 38.30L64.22 38.30Q60.43 47.86 52.90 55.44L52.90 55.44L49.97 51.70Q56.69 44.74 60.05 36.34L60.05 36.34Q62.16 30.72 63.55 22.18L63.55 22.18L51.41 22.18ZM83.95 32.59L69.98 32.59Q72.29 38.45 76.80 42.77L76.80 42.77Q81.60 38.45 83.95 32.59L83.95 32.59ZM107.28 26.02L107.28 22.56L111.02 22.56Q110.30 20.88 109.30 19.39L109.30 19.39L112.70 18.14Q113.76 19.97 114.72 22.56L114.72 22.56L117.26 22.56Q117.89 19.87 118.22 17.76L118.22 17.76L122.30 18.24Q121.97 20.54 121.44 22.56L121.44 22.56L124.80 22.56Q125.90 20.50 126.43 18.10L126.43 18.10L130.03 19.01Q129.65 20.69 128.69 22.56L128.69 22.56L132.72 22.56L132.72 26.02L120.38 26.02Q120.05 26.88 119.38 28.42L119.38 28.42L133.82 28.42L133.82 31.87L128.21 31.87Q130.61 35.28 135.74 38.06L135.74 38.06L135.74 16.80L104.26 16.80L104.26 50.30L135.74 50.30L135.74 38.16L133.34 41.18Q129.31 38.40 126.96 35.52L126.96 35.52L126.96 39.55Q126.96 42.67 123.12 42.82L123.12 42.82Q121.06 42.82 119.04 42.67L119.04 42.67L118.22 39.70Q120.72 39.89 121.54 39.89L121.54 39.89Q123.12 39.89 123.12 38.50L123.12 38.50L123.12 37.06L115.78 37.06L115.78 44.11Q115.78 45.07 117.07 45.07L117.07 45.07L123.74 45.07Q126.29 45.07 127.01 44.45L127.01 44.45Q127.54 43.68 127.92 41.42L127.92 41.42L131.62 42.62Q130.99 46.70 129.74 47.57L129.74 47.57Q128.40 48.38 124.90 48.38L124.90 48.38L115.34 48.38Q111.79 48.38 111.79 45.36L111.79 45.36L111.79 38.35Q109.58 40.13 106.85 41.66L106.85 41.66L104.74 38.35Q109.68 36 112.85 31.87L112.85 31.87L106.18 31.87L106.18 28.42L115.06 28.42Q115.73 27.12 116.16 26.02L116.16 26.02L107.28 26.02ZM115.82 34.18L125.95 34.18Q125.09 33.02 124.51 31.87L124.51 31.87L117.46 31.87Q116.40 33.41 115.82 34.18L115.82 34.18ZM135.74 54.05L104.26 54.05L104.26 55.87L99.94 55.87L99.94 13.10L140.06 13.10L140.06 55.87L135.74 55.87L135.74 54.05Z"/>
               </g>
            </g>
         </g>
      </g>
   </g>
   <defs v-gra="od">
      <linearGradient id="linearGradientBg" x1="0%" y1="0%" x2="100%" y2="100%">
         <stop offset="0%" style="stop-color:rgb(119, 174, 245);stop-opacity:1" />
         <stop offset="100%" style="stop-color:rgb(19, 94, 192);stop-opacity:1" />
      </linearGradient>
   </defs>
</svg>