<svg data-v-0dd9719b="" version="1.0" xmlns="http://www.w3.org/2000/svg" xmlns:xlink="http://www.w3.org/1999/xlink" width="84" height="30" viewBox="130 86 80 62" preserveAspectRatio="xMidYMid meet" color-interpolation-filters="sRGB" style="margin: auto;"> <g data-v-0dd9719b="" fill="url(#linearGradientBg)" class="singlesvg" transform="translate(88.10000610351562,91.01375198364258)"><g class="tp-name" transform="translate(0,0)"><g mask="url(#25c7fe37-9c80-4465-a033-7c757d3800a0)"><rect data-gra="graph-name" x="0" y="0" height="52.6" width="52.6"></rect> <g data-gra="path-name" fill="#c822b0" transform="translate(3.2750003814697273,3)"><g transform="scale(1)"><path d="M17.35-12.35L23.70-12.35L23.70-14.70L28.40-14.70L28.40-12.35L34.50-12.35L34.50-14.70L39.40-14.70L39.40-12.35L45.75-12.35L45.75-31.40L34.65-31.40L34.65-33.15L47.30-33.15L47.30-38.05L42.80-38.05L42.40-40L36.60-40L36.95-38.05L34.65-38.05L34.65-40.25L28.25-40.25L28.25-38.25L16.05-38.25L16.05-33.15L28.25-33.15L28.25-31.40L17.35-31.40ZM1.75-23.35L5.45-23.35L5.45 5L11.60 5L11.60-23.35L15.35-23.35L15.35-29L11.60-29L11.60-40L5.45-40L5.45-29L1.75-29ZM14.20-4.95L36.65-4.95L36.65-1L32.80-1L32.80 5L43.10 5L43.10-4.95L47.80-4.95L47.80-10.15L43.10-10.15L43.10-11.60L36.65-11.60L36.65-10.15L14.20-10.15ZM20.25-3.70L23.65 4.40L30.60 4.40L27.25-3.70ZM23.70-18.50L23.70-20.65L28.40-20.65L28.40-18.50ZM23.70-24.45L23.70-26.70L28.40-26.70L28.40-24.45ZM34.50-18.50L34.50-20.65L39.40-20.65L39.40-18.50ZM34.50-24.45L34.50-26.70L39.40-26.70L39.40-24.45Z" transform="translate(-1.75, 41)"></path></g></g></g><g transform="translate(55.6,0)" mask="url(#8b47c2d4-afb6-44e5-92d8-e5fafb134dfd)"><rect data-gra="graph-name" x="0" y="0" height="52.6" width="52.6"></rect> <g data-gra="path-name" fill="#c822b0" transform="translate(3.324999618530274,3)"><g transform="scale(1)"><path d="M46.50 5.60L46.50-1.30C42.30-2.45 38.60-3.95 35.45-5.85C40.20-10.70 43.45-17.05 44.70-25L16.40-25C16.75-26.65 17.05-28.30 17.35-29.95L47.50-29.95L47.50-36.25L18.50-36.25L19.25-41L12.70-41C12.45-39.40 12.20-37.80 11.90-36.25L2.50-36.25L2.50-29.95L10.80-29.95C8.55-17.95 5.70-6.45 1.55 5L8.70 5C11.70-4.40 14.05-13.45 16-22.85C17.45-15.90 20.55-10.25 24.85-5.85C21.70-3.95 18-2.45 13.80-1.30L13.80 5.60C19.90 4.15 25.45 1.85 30.15-1.40C34.85 1.85 40.40 4.15 46.50 5.60ZM23.75-18.90L36.55-18.90C35.05-15.40 32.95-12.35 30.15-9.75C27.35-12.35 25.25-15.40 23.75-18.90Z" transform="translate(-1.55, 41)"></path></g></g></g><g transform="translate(111.2,0)" mask="url(#2f148b5b-d5a7-4095-b040-2e248b7cc012)"><rect data-gra="graph-name" x="0" y="0" height="52.6" width="52.6"></rect> <g data-gra="path-name" fill="#c822b0" transform="translate(5.1499984741210945,3)"><g transform="scale(1)"><path d="M46.15-39.55L3.85-39.55L3.85 4.60L46.15 4.60ZM10.05-1.40L10.05-33.55L39.95-33.55L39.95-1.40ZM10.85-8.40C13.15-9.30 15.05-10.50 16.65-11.95L15.20-2.70L36.80-2.70L36.80-7.55L21.45-7.55L22.20-12.55L27.15-12.55L27.25-11.35L24.45-11.35L24.45-8.40L32.75-8.40L32.45-12.85C34.15-11 36.40-9.50 39.15-8.40L39.15-14.35C36.95-15.35 35.40-16.70 34.30-18.65L38.85-18.65L38.85-23.50L27.95-23.50L27.95-25.20L37.25-25.20L37.25-30L34.95-30L35.55-32.05L31-32.05L30.40-30L27.95-30L27.95-32.35L22.05-32.35L22.05-30L19.60-30L19-32.05L14.45-32.05L15.05-30L12.75-30L12.75-25.20L22.05-25.20L22.05-23.50L11.15-23.50L11.15-18.65L15.70-18.65C14.60-16.70 13.05-15.35 10.85-14.35ZM20.30-16.90C20.60-17.45 20.85-18.05 21.05-18.65L28.95-18.65C29.15-18.05 29.40-17.45 29.70-16.90Z" transform="translate(-3.85, 41)"></path></g></g></g></g></g><mask id="25c7fe37-9c80-4465-a033-7c757d3800a0"><rect data-gra="graph-name" x="0" y="0" height="52.6" width="52.6" fill="white"></rect> <g data-gra="path-name" transform="translate(3.2750003814697273,3)" fill="black"><g transform="scale(1)"><path d="M17.35-12.35L23.70-12.35L23.70-14.70L28.40-14.70L28.40-12.35L34.50-12.35L34.50-14.70L39.40-14.70L39.40-12.35L45.75-12.35L45.75-31.40L34.65-31.40L34.65-33.15L47.30-33.15L47.30-38.05L42.80-38.05L42.40-40L36.60-40L36.95-38.05L34.65-38.05L34.65-40.25L28.25-40.25L28.25-38.25L16.05-38.25L16.05-33.15L28.25-33.15L28.25-31.40L17.35-31.40ZM1.75-23.35L5.45-23.35L5.45 5L11.60 5L11.60-23.35L15.35-23.35L15.35-29L11.60-29L11.60-40L5.45-40L5.45-29L1.75-29ZM14.20-4.95L36.65-4.95L36.65-1L32.80-1L32.80 5L43.10 5L43.10-4.95L47.80-4.95L47.80-10.15L43.10-10.15L43.10-11.60L36.65-11.60L36.65-10.15L14.20-10.15ZM20.25-3.70L23.65 4.40L30.60 4.40L27.25-3.70ZM23.70-18.50L23.70-20.65L28.40-20.65L28.40-18.50ZM23.70-24.45L23.70-26.70L28.40-26.70L28.40-24.45ZM34.50-18.50L34.50-20.65L39.40-20.65L39.40-18.50ZM34.50-24.45L34.50-26.70L39.40-26.70L39.40-24.45Z" transform="translate(-1.75, 41)"></path></g></g></mask><mask id="8b47c2d4-afb6-44e5-92d8-e5fafb134dfd"><rect data-gra="graph-name" x="0" y="0" height="52.6" width="52.6" fill="white"></rect> <g data-gra="path-name" transform="translate(3.324999618530274,3)" fill="black"><g transform="scale(1)"><path d="M46.50 5.60L46.50-1.30C42.30-2.45 38.60-3.95 35.45-5.85C40.20-10.70 43.45-17.05 44.70-25L16.40-25C16.75-26.65 17.05-28.30 17.35-29.95L47.50-29.95L47.50-36.25L18.50-36.25L19.25-41L12.70-41C12.45-39.40 12.20-37.80 11.90-36.25L2.50-36.25L2.50-29.95L10.80-29.95C8.55-17.95 5.70-6.45 1.55 5L8.70 5C11.70-4.40 14.05-13.45 16-22.85C17.45-15.90 20.55-10.25 24.85-5.85C21.70-3.95 18-2.45 13.80-1.30L13.80 5.60C19.90 4.15 25.45 1.85 30.15-1.40C34.85 1.85 40.40 4.15 46.50 5.60ZM23.75-18.90L36.55-18.90C35.05-15.40 32.95-12.35 30.15-9.75C27.35-12.35 25.25-15.40 23.75-18.90Z" transform="translate(-1.55, 41)"></path></g></g></mask><mask id="2f148b5b-d5a7-4095-b040-2e248b7cc012"><rect data-gra="graph-name" x="0" y="0" height="52.6" width="52.6" fill="white"></rect> <g data-gra="path-name" transform="translate(5.1499984741210945,3)" fill="black"><g transform="scale(1)"><path d="M46.15-39.55L3.85-39.55L3.85 4.60L46.15 4.60ZM10.05-1.40L10.05-33.55L39.95-33.55L39.95-1.40ZM10.85-8.40C13.15-9.30 15.05-10.50 16.65-11.95L15.20-2.70L36.80-2.70L36.80-7.55L21.45-7.55L22.20-12.55L27.15-12.55L27.25-11.35L24.45-11.35L24.45-8.40L32.75-8.40L32.45-12.85C34.15-11 36.40-9.50 39.15-8.40L39.15-14.35C36.95-15.35 35.40-16.70 34.30-18.65L38.85-18.65L38.85-23.50L27.95-23.50L27.95-25.20L37.25-25.20L37.25-30L34.95-30L35.55-32.05L31-32.05L30.40-30L27.95-30L27.95-32.35L22.05-32.35L22.05-30L19.60-30L19-32.05L14.45-32.05L15.05-30L12.75-30L12.75-25.20L22.05-25.20L22.05-23.50L11.15-23.50L11.15-18.65L15.70-18.65C14.60-16.70 13.05-15.35 10.85-14.35ZM20.30-16.90C20.60-17.45 20.85-18.05 21.05-18.65L28.95-18.65C29.15-18.05 29.40-17.45 29.70-16.90Z" transform="translate(-3.85, 41)"></path></g></g></mask><defs v-gra="od"><linearGradient id="linearGradientBg" x1="0%" y1="0%" x2="100%" y2="100%"><stop offset="0%" style="stop-color:rgba(237, 126, 126, 1);stop-opacity:1" /><stop offset="100%" style="stop-color:rgba(192, 135, 221, 1);stop-opacity:1" /></linearGradient></defs></svg>