<svg version="1.0" xmlns="http://www.w3.org/2000/svg" width="30" height="30" viewBox="0 0 60 60" preserveAspectRatio="xMidYMid meet">
  <defs>
    <linearGradient id="linearGradientBg" x1="0%" y1="0%" x2="100%" y2="100%">
      <stop offset="0%" style="stop-color:#cd1c1c;stop-opacity:1" />
      <stop offset="100%" style="stop-color:#af15b2;stop-opacity:1" />
    </linearGradient>
  </defs>
  <rect width="60" height="60" rx="8" fill="url(#linearGradientBg)" />
  <g transform="translate(5, -3)">
         <g data-gra="path-name" class="tp-name iconsvg-namesvg" fill="white">
            <g transform="scale(1)">
               <g>
                  <path d="M28.85 30.34L22.27 30.34L22.27 32.78L28.85 32.78L28.85 30.34ZM39.74 30.34L33.12 30.34L33.12 32.78L39.74 32.78L39.74 30.34ZM33.12 27.22L39.74 27.22L39.74 24.77L33.12 24.77L33.12 27.22ZM22.27 27.22L28.85 27.22L28.85 24.77L22.27 24.77L22.27 27.22ZM28.85 35.90L22.27 35.90L22.27 40.03L18.10 40.03L18.10 21.31L28.85 21.31L28.85 18.96L16.90 18.96L16.90 15.12L28.85 15.12L28.85 11.52L33.12 11.52L33.12 15.12L37.92 15.12Q37.15 13.39 36.19 11.95L36.19 11.95L40.08 11.33Q41.18 13.92 41.62 15.12L41.62 15.12L45.22 15.12L45.22 18.96L33.12 18.96L33.12 21.31L43.92 21.31L43.92 40.03L40.08 40.03L40.08 41.81L45.46 41.81L45.46 45.65L40.08 45.65L40.08 51.46Q40.08 55.73 35.47 55.73L35.47 55.73L30.77 55.73L29.81 51.50Q31.97 51.79 33.98 51.79L33.98 51.79Q35.71 51.79 35.71 50.40L35.71 50.40L35.71 45.65L23.23 45.65Q26.88 48.24 29.52 50.88L29.52 50.88L26.69 53.76Q24.24 51.02 19.92 47.86L19.92 47.86L22.22 45.65L15.65 45.65L15.65 41.81L35.71 41.81L35.71 39.50L39.74 39.50L39.74 35.90L33.12 35.90L33.12 39.60L28.85 39.60L28.85 35.90ZM2.54 27.36L2.54 22.94L7.20 22.94L7.20 11.62L11.66 11.62L11.66 22.94L16.03 22.94L16.03 27.36L11.66 27.36L11.66 55.78L7.20 55.78L7.20 27.36L2.54 27.36Z"/>
               </g>
            </g>
         </g>
      </g>
</svg>