<svg data-v-0dd9719b="" version="1.0" xmlns="http://www.w3.org/2000/svg" xmlns:xlink="http://www.w3.org/1999/xlink" width="60" height="30" viewBox="150 78 42 100" preserveAspectRatio="xMidYMid meet" color-interpolation-filters="sRGB" style="margin: auto;"><g data-v-0dd9719b="" fill="url(#linearGradientBg)" class="bordersvg b-d1" transform="translate(82.54500579833984,81.27250289916992)"><polyline stroke="url(#linearGradientBg)" stroke-width="3" fill-opacity="0" points="43.72749710083008,19.712493896484375 43.72749710083008,0 131.18249130249023,9.856246948242188 131.18249130249023,19.712493896484375"></polyline> <polyline stroke="url(#linearGradientBg)" stroke-width="3" fill-opacity="0" points="43.72749710083008,67.74250030517578 43.72749710083008,87.45499420166016 131.18249130249023,77.59874725341797 131.18249130249023,67.74250030517578"></polyline> <g transform="translate(0,19.712493896484375)"><g><rect data-gra="graph-name-bg" stroke-width="2" class="i-icon-bg" x="0" y="0" width="174.9099884033203" height="48.030006408691406" fill-opacity="0"></rect></g> <g transform="translate(0,3)"><g data-gra="path-name" fill-rule="" class="tp-name"><g transform="scale(1)"><g><path d="M26.59-1.71L26.59-3.73 39.51-3.73 39.51-8.87 26.59-8.87 26.59-10.84 40.55-10.84 40.55-16.7 26.59-16.7 26.59-19.08 39.42-19.08 39.42-35.95 5.58-35.95 5.58-19.08 7.96-19.08C6.52-16.43 4.23-13.18 2.07-11.03L5.76-8.37 5.76-3.73 18.99-3.73 18.99-1.71 1.71-1.71 1.71 4.32 42.75 4.32 42.75-1.71ZM32.17-30.96L32.17-29.02 12.69-29.02 12.69-30.96ZM12.69-23.54L12.69-25.38 32.17-25.38 32.17-23.54ZM18.99-19.08L18.99-16.7 14.08-16.7 14.71-17.82 11.61-19.08ZM8.82-8.87L10.3-10.84 18.99-10.84 18.99-8.87ZM87.93-4.27C85.41-6.03 82.89-8.64 80.78-11.56 82.84-13.63 85.45-16.52 86.89-18.09L81.94-22.68C80.82-21.11 79.02-19.04 77.4-17.28 76.86-18.5 76.41-19.57 76.09-20.79L76.09-23.22 86.31-23.22 86.31-30.15 84.47-30.15C84.1-31.63 83.66-33.75 83.16-35.23L77.8-34.96C78.12-34.02 78.61-31.9 79.02-30.15L76.09-30.15 76.09-36.49 69.34-36.67 69.34-30.15 60.48-30.15 60.48-23.22 69.34-23.22 69.34-15.62C66.51-12.91 62.28-9.4 58.54-6.88L59.4-5.13 56.79-4.77 56.79-12.64 59.67-12.64 59.67-17.82C60.93-16.2 62.37-14.31 63.58-12.38L68.35-16.47C66.78-18.77 65.02-21.06 63.27-22.9L59.17-19.53 56.79-19.53 56.79-27.22 60.12-27.22 60.12-34.2 47.02-34.2 47.02-27.22 50.4-27.22 50.4-19.53 47.38-19.53 47.38-12.64 50.4-12.64 50.4-3.96 45.72-3.46 46.17 3.87C49.45 3.38 57.02 2.34 60.34 1.75L60.34-3.19 61.92 0C64.22-1.93 66.87-4.46 69.34-6.93L69.34-3.96C69.34-2.11 68.94-1.62 67.19-1.44L64.8-1.17 66.91 5.31 69.44 5.08C74.61 4.59 76.09 3.38 76.09-1.35L76.09-7.25C78.21-3.46 80.73-0.36 84.15 3.19ZM131.04-13L123.79-13 123.79-15.88 129.51-15.88 129.51-21.29 125.59-21.29 126.67-24.84 125.37-25.2 130.45-25.2 130.45-34.52 115.38-34.52 114.88-36.63 107.01-36.63 107.5-34.52 92.34-34.52 92.34-25.2 96.97-25.2 95.98-25.02 97.33-21.29 93.15-21.29 93.15-15.88 116.73-15.88 116.73-13 101.66-13 102.73-14.94 95.31-14.94 94.27-13.09 94.27-7.02 104.63-7.02C100.66-4.72 96.12-3.01 90.49-1.62L94.27 4.95C102.78 1.93 109.48-1.62 115.02-7.02L116.73-7.02 116.73-4.09C116.73-2.34 115.88-1.84 113.89-1.71L110.02-1.44 112.41 5.22 116.86 4.95C122.26 4.59 123.79 3.42 123.79-0.77L123.79-7.02 131.04-7.02ZM108.85-28.21C106.16-27.31 102.69-26.41 99.41-25.7L99.41-28.66 123.25-28.66 123.25-25.79C120.06-26.59 115.96-27.68 113.76-28.17L112.09-23.76C114.84-23.09 118.39-22.18 121.63-21.29L101.74-21.29C104.94-22.14 108-22.95 110.52-23.67ZM176.62-0.99C173.25-1.48 170.37-2.21 167.67-3.24 169.83-5.17 171.49-7.38 172.93-9.9L172.93-14.35 174.06-13.72 176.4-18.9C174.01-20.07 168.93-22.54 165.78-23.98 167.71-24.03 169.6-24.03 171.36-24.16L172.48-22.81 175.99-27.04C173.83-29.34 170.1-32.89 167.44-34.96L164.02-31.68C164.7-31.09 165.37-30.42 166.14-29.65L158.08-29.43C160.56-31.54 163.17-34.24 164.25-35.68L157.45-36.72C155.83-34.52 154.12-32.45 152.68-31.14 151.56-30.11 150.34-29.52 149.31-29.16L150.79-22.99C151.74-23.22 155.2-23.49 157.27-23.63L157.32-23.63C154.93-22.23 151.38-20.52 148.18-19.21L150.84-13.9C149.76-15.48 147.91-17.5 146.97-18.59L145.71-17.46 145.71-23.18 148.63-23.18 148.63-29.97 145.71-29.97 145.71-36.45 139.54-36.63 139.54-29.97 136.26-29.97 136.26-23.18 139.54-23.18C138.82-20.61 136.66-16.92 134.82-13.63L135.94-3.6C136.66-4.68 138.1-7.42 139.54-10.26L139.54 5.04 145.71 5.04 145.71-11.97C146.38-10.84 147.01-9.76 147.42-9L151.24-13.32 150.88-13.81C152.55-14.71 154.3-15.71 156.06-16.74 154.12-13.99 150.88-10.53 147.51-7.88L150.93-3.46C151.96-4.23 152.91-5.04 153.81-5.8 154.66-4.86 155.56-4 156.51-3.15 153.99-2.11 151.06-1.3 147.33-0.45L150.57 5.17C155.29 3.78 159.07 2.43 162.13 0.67 165.33 2.43 168.88 3.78 173.38 5.17ZM157.9-23.67C159.7-23.8 162.49-23.85 165.37-23.98L162.99-19.8C165.28-18.59 168.61-16.79 171.45-15.21L161.73-15.21C162.13-15.88 162.49-16.56 162.85-17.28L157.05-17.37C158.44-18.22 159.61-18.99 160.65-19.71ZM158.17-10.21L166.36-10.21C165.06-8.64 163.62-7.29 161.95-6.08 160.29-7.2 158.89-8.41 157.77-9.76Z" transform="translate(-1.7100000381469727, 36.720001220703125)"></path></g></g></g></g></g></g><defs v-gra="od"><linearGradient id="linearGradientBg" x1="0%" y1="0%" x2="100%" y2="100%"><stop offset="0%" style="stop-color:rgba(205, 28, 28, 1);stop-opacity:1" /><stop offset="100%" style="stop-color:rgb(77, 20, 230);stop-opacity:1" /></linearGradient></defs></svg>