<svg width="800" height="800" viewBox="0 0 800 800" xmlns="http://www.w3.org/2000/svg">
<defs>
  <linearGradient id="lineGradient" x1="0%" y1="0%" x2="100%" y2="0%">
    <stop offset="0%" stop-color="#00f" stop-opacity="0" />
    <stop offset="50%" stop-color="#00f" stop-opacity="0.8" />
    <stop offset="100%" stop-color="#00f" stop-opacity="0" />
    <animateTransform attributeName="gradientTransform" type="translate" from="-1 0" to="1 0" dur="4s" repeatCount="indefinite" />
  </linearGradient>
  <filter id="glow" x="-50%" y="-50%" width="200%" height="200%">
    <feGaussianBlur stdDeviation="2" result="blur"/>
    <feMerge>
      <feMergeNode in="blur"/>
      <feMergeNode in="SourceGraphic"/>
    </feMerge>
  </filter>
</defs>
<g id="nodes">
  <circle cx="734.00" cy="400.00" r="8" fill="#999" filter="url(#glow)"/>
  <circle cx="672.17" cy="469.88" r="8" fill="#999" filter="url(#glow)"/>
  <circle cx="636.60" cy="530.07" r="8" fill="#999" filter="url(#glow)"/>
  <circle cx="643.48" cy="628.64" r="8" fill="#999" filter="url(#glow)"/>
  <circle cx="547.35" cy="632.19" r="8" fill="#999" filter="url(#glow)"/>
  <circle cx="479.11" cy="643.47" r="8" fill="#999" filter="url(#glow)"/>
  <circle cx="421.16" cy="736.34" r="8" fill="#999" filter="url(#glow)"/>
  <circle cx="337.79" cy="726.12" r="8" fill="#999" filter="url(#glow)"/>
  <circle cx="253.53" cy="711.26" r="8" fill="#999" filter="url(#glow)"/>
  <circle cx="236.82" cy="597.25" r="8" fill="#999" filter="url(#glow)"/>
  <circle cx="126.55" cy="598.67" r="8" fill="#999" filter="url(#glow)"/>
  <circle cx="147.10" cy="500.13" r="8" fill="#999" filter="url(#glow)"/>
  <circle cx="126.18" cy="434.59" r="8" fill="#999" filter="url(#glow)"/>
  <circle cx="118.24" cy="364.41" r="8" fill="#999" filter="url(#glow)"/>
  <circle cx="92.24" cy="278.15" r="8" fill="#999" filter="url(#glow)"/>
  <circle cx="168.62" cy="231.89" r="8" fill="#999" filter="url(#glow)"/>
  <circle cx="232.36" cy="197.36" r="8" fill="#999" filter="url(#glow)"/>
  <circle cx="293.13" cy="172.89" r="8" fill="#999" filter="url(#glow)"/>
  <circle cx="348.10" cy="127.91" r="8" fill="#999" filter="url(#glow)"/>
  <circle cx="420.41" cy="75.64" r="8" fill="#999" filter="url(#glow)"/>
  <circle cx="480.65" cy="151.77" r="8" fill="#999" filter="url(#glow)"/>
  <circle cx="584.32" cy="109.55" r="8" fill="#999" filter="url(#glow)"/>
  <circle cx="622.34" cy="191.21" r="8" fill="#999" filter="url(#glow)"/>
  <circle cx="653.25" cy="260.77" r="8" fill="#999" filter="url(#glow)"/>
  <circle cx="694.45" cy="324.40" r="8" fill="#999" filter="url(#glow)"/>
</g>
<g id="links" stroke="url(#lineGradient)" stroke-width="1" fill="none">
  <line x1="734.00" y1="400.00" x2="480.65" y2="151.77"/>
  <line x1="734.00" y1="400.00" x2="337.79" y2="726.12"/>
  <line x1="734.00" y1="400.00" x2="118.24" y2="364.41"/>
  <line x1="672.17" y1="469.88" x2="479.11" y2="643.47"/>
  <line x1="672.17" y1="469.88" x2="622.34" y2="191.21"/>
  <line x1="672.17" y1="469.88" x2="584.32" y2="109.55"/>
  <line x1="672.17" y1="469.88" x2="734.00" y2="400.00"/>
  <line x1="672.17" y1="469.88" x2="293.13" y2="172.89"/>
  <line x1="636.60" y1="530.07" x2="421.16" y2="736.34"/>
  <line x1="636.60" y1="530.07" x2="672.17" y2="469.88"/>
  <line x1="636.60" y1="530.07" x2="126.55" y2="598.67"/>
  <line x1="636.60" y1="530.07" x2="547.35" y2="632.19"/>
  <line x1="643.48" y1="628.64" x2="92.24" y2="278.15"/>
  <line x1="643.48" y1="628.64" x2="168.62" y2="231.89"/>
  <line x1="643.48" y1="628.64" x2="147.10" y2="500.13"/>
  <line x1="643.48" y1="628.64" x2="126.55" y2="598.67"/>
  <line x1="547.35" y1="632.19" x2="337.79" y2="726.12"/>
  <line x1="547.35" y1="632.19" x2="126.18" y2="434.59"/>
  <line x1="547.35" y1="632.19" x2="643.48" y2="628.64"/>
  <line x1="479.11" y1="643.47" x2="694.45" y2="324.40"/>
  <line x1="479.11" y1="643.47" x2="118.24" y2="364.41"/>
  <line x1="479.11" y1="643.47" x2="232.36" y2="197.36"/>
  <line x1="479.11" y1="643.47" x2="672.17" y2="469.88"/>
  <line x1="479.11" y1="643.47" x2="420.41" y2="75.64"/>
  <line x1="421.16" y1="736.34" x2="337.79" y2="726.12"/>
  <line x1="421.16" y1="736.34" x2="232.36" y2="197.36"/>
  <line x1="421.16" y1="736.34" x2="584.32" y2="109.55"/>
  <line x1="421.16" y1="736.34" x2="694.45" y2="324.40"/>
  <line x1="421.16" y1="736.34" x2="420.41" y2="75.64"/>
  <line x1="337.79" y1="726.12" x2="236.82" y2="597.25"/>
  <line x1="337.79" y1="726.12" x2="421.16" y2="736.34"/>
  <line x1="337.79" y1="726.12" x2="232.36" y2="197.36"/>
  <line x1="253.53" y1="711.26" x2="636.60" y2="530.07"/>
  <line x1="253.53" y1="711.26" x2="584.32" y2="109.55"/>
  <line x1="253.53" y1="711.26" x2="147.10" y2="500.13"/>
  <line x1="253.53" y1="711.26" x2="126.18" y2="434.59"/>
  <line x1="236.82" y1="597.25" x2="126.18" y2="434.59"/>
  <line x1="236.82" y1="597.25" x2="337.79" y2="726.12"/>
  <line x1="236.82" y1="597.25" x2="694.45" y2="324.40"/>
  <line x1="126.55" y1="598.67" x2="694.45" y2="324.40"/>
  <line x1="126.55" y1="598.67" x2="734.00" y2="400.00"/>
  <line x1="126.55" y1="598.67" x2="337.79" y2="726.12"/>
  <line x1="147.10" y1="500.13" x2="253.53" y2="711.26"/>
  <line x1="147.10" y1="500.13" x2="636.60" y2="530.07"/>
  <line x1="147.10" y1="500.13" x2="348.10" y2="127.91"/>
  <line x1="147.10" y1="500.13" x2="734.00" y2="400.00"/>
  <line x1="126.18" y1="434.59" x2="236.82" y2="597.25"/>
  <line x1="126.18" y1="434.59" x2="118.24" y2="364.41"/>
  <line x1="126.18" y1="434.59" x2="420.41" y2="75.64"/>
  <line x1="126.18" y1="434.59" x2="92.24" y2="278.15"/>
  <line x1="118.24" y1="364.41" x2="232.36" y2="197.36"/>
  <line x1="118.24" y1="364.41" x2="337.79" y2="726.12"/>
  <line x1="118.24" y1="364.41" x2="421.16" y2="736.34"/>
  <line x1="118.24" y1="364.41" x2="293.13" y2="172.89"/>
  <line x1="118.24" y1="364.41" x2="147.10" y2="500.13"/>
  <line x1="92.24" y1="278.15" x2="236.82" y2="597.25"/>
  <line x1="92.24" y1="278.15" x2="253.53" y2="711.26"/>
  <line x1="92.24" y1="278.15" x2="694.45" y2="324.40"/>
  <line x1="92.24" y1="278.15" x2="479.11" y2="643.47"/>
  <line x1="92.24" y1="278.15" x2="348.10" y2="127.91"/>
  <line x1="168.62" y1="231.89" x2="421.16" y2="736.34"/>
  <line x1="168.62" y1="231.89" x2="293.13" y2="172.89"/>
  <line x1="168.62" y1="231.89" x2="126.18" y2="434.59"/>
  <line x1="232.36" y1="197.36" x2="92.24" y2="278.15"/>
  <line x1="232.36" y1="197.36" x2="643.48" y2="628.64"/>
  <line x1="232.36" y1="197.36" x2="547.35" y2="632.19"/>
  <line x1="232.36" y1="197.36" x2="420.41" y2="75.64"/>
  <line x1="293.13" y1="172.89" x2="636.60" y2="530.07"/>
  <line x1="293.13" y1="172.89" x2="92.24" y2="278.15"/>
  <line x1="293.13" y1="172.89" x2="653.25" y2="260.77"/>
  <line x1="348.10" y1="127.91" x2="236.82" y2="597.25"/>
  <line x1="348.10" y1="127.91" x2="547.35" y2="632.19"/>
  <line x1="348.10" y1="127.91" x2="293.13" y2="172.89"/>
  <line x1="348.10" y1="127.91" x2="479.11" y2="643.47"/>
  <line x1="348.10" y1="127.91" x2="480.65" y2="151.77"/>
  <line x1="420.41" y1="75.64" x2="421.16" y2="736.34"/>
  <line x1="420.41" y1="75.64" x2="337.79" y2="726.12"/>
  <line x1="420.41" y1="75.64" x2="584.32" y2="109.55"/>
  <line x1="420.41" y1="75.64" x2="636.60" y2="530.07"/>
  <line x1="480.65" y1="151.77" x2="232.36" y2="197.36"/>
  <line x1="480.65" y1="151.77" x2="584.32" y2="109.55"/>
  <line x1="480.65" y1="151.77" x2="421.16" y2="736.34"/>
  <line x1="480.65" y1="151.77" x2="126.55" y2="598.67"/>
  <line x1="480.65" y1="151.77" x2="636.60" y2="530.07"/>
  <line x1="584.32" y1="109.55" x2="672.17" y2="469.88"/>
  <line x1="584.32" y1="109.55" x2="420.41" y2="75.64"/>
  <line x1="584.32" y1="109.55" x2="126.18" y2="434.59"/>
  <line x1="622.34" y1="191.21" x2="293.13" y2="172.89"/>
  <line x1="622.34" y1="191.21" x2="643.48" y2="628.64"/>
  <line x1="622.34" y1="191.21" x2="480.65" y2="151.77"/>
  <line x1="653.25" y1="260.77" x2="479.11" y2="643.47"/>
  <line x1="653.25" y1="260.77" x2="584.32" y2="109.55"/>
  <line x1="653.25" y1="260.77" x2="126.18" y2="434.59"/>
  <line x1="653.25" y1="260.77" x2="480.65" y2="151.77"/>
  <line x1="653.25" y1="260.77" x2="92.24" y2="278.15"/>
  <line x1="694.45" y1="324.40" x2="547.35" y2="632.19"/>
  <line x1="694.45" y1="324.40" x2="734.00" y2="400.00"/>
  <line x1="694.45" y1="324.40" x2="232.36" y2="197.36"/>
  <line x1="694.45" y1="324.40" x2="126.55" y2="598.67"/>
  <line x1="694.45" y1="324.40" x2="480.65" y2="151.77"/>
</g>
</svg>